<?xml version="1.0" standalone="no"?>
<!DOCTYPE svg PUBLIC "-//W3C//DTD SVG 20010904//EN"
 "http://www.w3.org/TR/2001/REC-SVG-20010904/DTD/svg10.dtd">
<svg version="1.0" xmlns="http://www.w3.org/2000/svg"
 width="225.000000pt" height="225.000000pt" viewBox="0 0 225.000000 225.000000"
 preserveAspectRatio="xMidYMid meet">
<metadata>
Created by potrace 1.14, written by Peter Selinger 2001-2017
</metadata>
<g transform="translate(0.000000,225.000000) scale(0.100000,-0.100000)"
fill="#000000" stroke="none">
<path d="M1460 1885 c-144 -30 -258 -85 -372 -180 -60 -49 -68 -59 -68 -90 0
-38 28 -75 58 -75 9 0 46 25 82 56 82 70 144 105 245 140 71 25 94 28 205 28
108 -1 136 -4 205 -27 96 -31 181 -81 269 -159 70 -60 93 -65 121 -25 28 40
19 71 -37 124 -189 177 -464 258 -708 208z"/>
<path d="M160 1129 l0 -670 278 3 277 3 66 31 c166 79 259 255 229 434 -10 60
-10 74 1 81 8 5 20 3 29 -5 32 -28 40 -8 40 94 0 69 -4 99 -12 102 -29 11 -38
-4 -38 -61 0 -86 -42 -133 -68 -76 -7 14 -12 47 -12 73 0 69 -28 94 -53 46
-11 -21 -15 -23 -25 -12 -8 11 -5 25 14 63 107 217 -11 480 -245 549 -42 12
-103 16 -268 16 l-213 0 0 -671z m429 426 c54 -27 81 -71 81 -128 0 -104 -61
-154 -190 -154 l-75 -1 3 149 3 149 75 0 c46 0 86 -6 103 -15z m-121 -557 c9
-9 15 -9 24 0 15 15 60 16 76 0 8 -8 15 -8 27 2 12 10 24 11 54 1 111 -33 155
-167 84 -252 -41 -49 -78 -59 -208 -59 l-115 0 0 160 0 160 23 0 c13 0 28 -5
35 -12z"/>
<path d="M1537 1638 c-152 -18 -347 -138 -347 -214 0 -27 40 -74 64 -74 8 0
43 25 76 55 90 79 148 100 285 100 104 0 114 -2 176 -32 36 -18 90 -55 120
-83 30 -27 59 -50 65 -50 6 0 23 9 38 21 19 15 26 30 26 54 0 27 -9 42 -55 83
-119 109 -281 160 -448 140z"/>
<path d="M1480 1295 c-25 -8 -72 -30 -104 -50 -33 -19 -70 -38 -83 -41 -27 -7
-54 -40 -47 -58 3 -7 -9 -36 -25 -66 l-30 -55 -3 125 c-3 120 -4 125 -25 128
-29 4 -36 -34 -31 -167 3 -106 14 -135 42 -112 13 11 13 8 4 -26 -5 -21 -8
-76 -6 -123 3 -70 10 -98 36 -153 84 -181 277 -288 465 -257 76 12 191 67 236
113 l33 35 -92 62 c-84 56 -93 60 -109 46 -52 -47 -140 -58 -209 -25 -39 19
-102 87 -102 111 0 4 137 8 304 8 l304 0 6 23 c21 79 -8 204 -75 316 -11 18
-11 25 -1 28 33 12 -8 58 -47 51 -10 -2 -35 9 -57 24 -80 56 -132 72 -239 75
-67 2 -115 -2 -145 -12z m161 -286 c29 -15 97 -15 112 0 6 6 14 11 19 11 9 0
38 -54 38 -70 0 -6 -66 -10 -195 -10 -107 0 -195 3 -195 7 0 3 12 27 27 52 24
41 27 43 34 23 10 -27 52 -38 86 -23 31 14 25 35 -10 39 -37 4 -36 37 1 50 25
9 28 7 44 -29 9 -20 27 -43 39 -50z m64 69 c30 -14 28 -32 -5 -36 -22 -4 -50
19 -50 40 0 12 25 10 55 -4z"/>
</g>
</svg>
